<?xml version="1.0" encoding="UTF-8"?>
<svg width="14px" height="14px" viewBox="0 0 14 14" version="1.1" xmlns="http://www.w3.org/2000/svg" xmlns:xlink="http://www.w3.org/1999/xlink">
    <!-- Generator: Sketch 52.4 (67378) - http://www.bohemiancoding.com/sketch -->
    <title>jiejue</title>
    <desc>Created with Sketch.</desc>
    <g id="Page-1" stroke="none" stroke-width="1" fill="none" fill-rule="evenodd">
        <g id="API文档_开发者注意" transform="translate(-672.000000, -4049.000000)" fill="#41D26F" fill-rule="nonzero">
            <g id="现货K线最早开始时间-Copy" transform="translate(450.000000, 3631.000000)">
                <g id="Group-4-Copy-9" transform="translate(222.000000, 250.000000)">
                    <g id="zhengque" transform="translate(0.000000, 168.000000)">
                        <path d="M6.98954357,13.9790871 C5.01165145,13.9270373 3.36836515,13.2429544 2.05224896,11.9268382 C0.73613278,10.610722 0.0520497925,8.96743568 0,6.98954357 C0.0520497925,5.01165145 0.73613278,3.36836515 2.05224896,2.05224896 C3.36836515,0.73613278 5.01165145,0.0520497925 6.98954357,0 C8.96743568,0.0520497925 10.610722,0.73613278 11.9268382,2.05224896 C13.2429544,3.36836515 13.9270373,5.01165145 13.9790871,6.98954357 C13.9270373,8.96743568 13.2429544,10.610722 11.9268382,11.9268382 C10.610722,13.2429544 8.96743568,13.9270373 6.98954357,13.9790871 Z M6.98954357,0.996381743 C5.29420747,1.04099585 3.88142739,1.62841494 2.75120332,2.75120332 C1.62097925,3.88142739 1.04099585,5.29420747 0.996381743,6.98954357 C1.04099585,8.68487967 1.62097925,10.0976598 2.75120332,11.2278838 C3.88142739,12.3581079 5.29420747,12.9380913 6.98954357,12.9827054 C8.68487967,12.9380913 10.0976598,12.3581079 11.2278838,11.2278838 C12.3581079,10.0976598 12.9380913,8.68487967 12.9827054,6.98954357 C12.9380913,5.29420747 12.3581079,3.88142739 11.2278838,2.75120332 C10.0976598,1.62841494 8.68487967,1.04099585 6.98954357,0.996381743 Z M10.3430373,5.13062241 C10.2389378,5.03395851 10.1199668,4.9893444 9.99356017,4.9893444 C9.85971784,4.9893444 9.74818257,5.03395851 9.64408299,5.13062241 L5.99316183,8.81128631 L4.38705394,7.16056432 C4.28295436,7.06390041 4.1639834,7.01928631 4.03757676,7.01185062 C3.90373444,7.00441494 3.79219917,7.05646473 3.68809959,7.15312863 C3.584,7.24979253 3.53195021,7.36876349 3.53195021,7.50260581 C3.53195021,7.63644813 3.57656432,7.75541909 3.67322822,7.85951867 L5.65112033,9.88946058 C5.68086307,9.91176763 5.71804149,9.93407469 5.7626556,9.94894606 L5.80726971,9.99356017 C5.86675519,10.0158672 5.93367635,10.0233029 5.99316183,10.0233029 C6.0526473,10.0233029 6.11956846,10.0158672 6.17905394,9.99356017 L6.23853942,9.94894606 C6.26828216,9.94151037 6.30546058,9.91920332 6.35007469,9.88946058 L10.3430373,5.82957676 C10.4471369,5.73291286 10.4991867,5.62137759 10.491751,5.48753527 C10.4843154,5.35369295 10.4397012,5.23472199 10.3430373,5.13062241 Z" id="jiejue"></path>
                    </g>
                </g>
            </g>
        </g>
    </g>
</svg>