<?xml version="1.0" encoding="UTF-8"?>
<svg width="14px" height="14px" viewBox="0 0 14 14" version="1.1" xmlns="http://www.w3.org/2000/svg" xmlns:xlink="http://www.w3.org/1999/xlink">
    <!-- Generator: Sketch 52.4 (67378) - http://www.bohemiancoding.com/sketch -->
    <title>wenti</title>
    <desc>Created with Sketch.</desc>
    <g id="Page-1" stroke="none" stroke-width="1" fill="none" fill-rule="evenodd">
        <g id="API文档_开发者注意" transform="translate(-672.000000, -3688.000000)" fill="#EE4758" fill-rule="nonzero">
            <g id="现货K线最早开始时间-Copy" transform="translate(450.000000, 3631.000000)">
                <g id="Group-4" transform="translate(222.000000, 19.000000)">
                    <g id="eggN" transform="translate(0.000000, 38.000000)">
                        <path d="M7,14 C3.13400675,14 4.73447626e-16,10.8659932 0,7 C-4.73447626e-16,3.13400675 3.13400675,7.10171439e-16 7,0 C10.8659932,-7.10171439e-16 14,3.13400675 14,7 C13.9993099,10.8657074 10.8657074,13.9993099 7,14 Z M7,1.00499999 C3.68974339,1.00430971 1.00569059,3.68724329 1.00500025,6.9974999 C1.00430992,10.3077565 3.68724346,12.9918094 6.99750008,12.9924997 C10.3077567,12.9931901 12.9918096,10.3102566 12.9925,7 C12.9918107,3.69031458 10.3096848,1.00706977 7,1.00499999 Z M7,5 C6.69665332,5 6.4231761,4.81726837 6.30709035,4.53701258 C6.1910046,4.25675678 6.25517142,3.93416841 6.46966991,3.71966991 C6.68416841,3.50517142 7.00675678,3.4410046 7.28701258,3.55709035 C7.56726837,3.6731761 7.75,3.94665332 7.75,4.25 C7.75,4.66421357 7.41421356,5 7,5 Z M7,6.25 C7.27580047,6.2508237 7.49917631,6.47419953 7.50000001,6.75 L7.50000001,10.25 C7.49999999,10.5261424 7.27614237,10.75 7,10.75 C6.72385763,10.75 6.50000001,10.5261424 6.49999999,10.25 L6.49999999,6.75 C6.50082369,6.47419953 6.72419953,6.2508237 7,6.25 Z" id="wenti"></path>
                    </g>
                </g>
            </g>
        </g>
    </g>
</svg>