<?xml version="1.0" encoding="UTF-8"?>
<svg width="18px" height="16px" viewBox="0 0 18 16" version="1.1" xmlns="http://www.w3.org/2000/svg" xmlns:xlink="http://www.w3.org/1999/xlink">
    <!-- Generator: Sketch 50.2 (55047) - http://www.bohemiancoding.com/sketch -->
    <title>wechatpay</title>
    <desc>Created with Sketch.</desc>
    <defs></defs>
    <g id="Page-1" stroke="none" stroke-width="1" fill="none" fill-rule="evenodd">
        <g id="微信支付" transform="translate(-608.000000, -481.000000)" fill="#7C7D7F" fill-rule="nonzero">
            <g id="弹窗" transform="translate(560.000000, 201.000000)">
                <g id="支付方式" transform="translate(30.000000, 222.000000)">
                    <g id="微信支付" transform="translate(1.000000, 41.000000)">
                        <path d="M34.3346792,25.5790189 L17.6500755,25.5790189 C17.2911887,25.5790189 17,25.2874717 17,24.9284717 C17,24.5694906 17.2912264,24.2781698 17.6500755,24.2781698 L34.3346792,24.2781698 C34.693434,24.2781698 34.9847547,24.5694906 34.9847547,24.9284717 C34.9847547,25.2874717 34.693434,25.5790189 34.3346792,25.5790189 Z M33.4680189,21.7697358 C33.1092642,21.7697358 32.8179434,21.4786604 32.8179434,21.1191887 L32.8179434,18.3008679 L30.0010189,18.3008679 C29.642283,18.3008679 29.3509623,18.0094528 29.3509623,17.650434 C29.3509623,17.291434 29.6423019,17 30.0010189,17 L33.468,17 C33.8267547,17 34.1180755,17.2914151 34.1180755,17.650434 L34.1180755,21.1191698 C34.1180755,21.4786604 33.8267547,21.769717 33.468,21.769717 L33.4680189,21.7697358 Z M21.9837547,18.3008491 L19.1668302,18.3008491 L19.1668302,21.1191698 C19.1668302,21.4786415 18.8756038,21.769717 18.5167547,21.769717 C18.1580189,21.769717 17.8666981,21.4786415 17.8666981,21.1191698 L17.8666981,17.6504528 C17.8666981,17.2914528 18.1580189,17.0000189 18.5167547,17.0000189 L21.9837358,17.0000189 C22.3424906,17.0000189 22.6338113,17.291434 22.6338113,17.6504528 C22.6338113,18.009434 22.3424906,18.3008491 21.9837358,18.3008491 L21.9837547,18.3008491 Z M18.5167547,28.1804906 C18.8756415,28.1804906 19.1668302,28.4720566 19.1668302,28.8310377 L19.1668302,31.6493585 L21.9837358,31.6493585 C22.3424906,31.6493585 22.6338113,31.9406981 22.6338113,32.2999057 C22.6338113,32.6588868 22.3424906,32.9502075 21.9837358,32.9502075 L18.5167736,32.9502075 C18.1580377,32.9502075 17.866717,32.6588679 17.866717,32.2999057 L17.866717,28.8310189 C17.866717,28.4720377 18.1580377,28.1804717 18.5167736,28.1804717 L18.5167547,28.1804906 Z M30.0010189,31.6493396 L32.8179245,31.6493396 L32.8179245,28.8310189 C32.8179245,28.4720377 33.1092642,28.1804717 33.468,28.1804717 C33.8267358,28.1804717 34.1180755,28.4720377 34.1180755,28.8310189 L34.1180755,32.2999057 C34.1180755,32.6588868 33.8267358,32.9502075 33.468,32.9502075 L30.0010377,32.9502075 C29.6423019,32.9502075 29.3509811,32.6588679 29.3509811,32.2999057 C29.3509623,31.9406604 29.6423019,31.6493585 30.0010377,31.6493585 L30.0010189,31.6493396 Z" id="wechatpay"></path>
                    </g>
                </g>
            </g>
        </g>
    </g>
</svg>